<?xml version="1.0" standalone="no"?>
<!DOCTYPE svg PUBLIC "-//W3C//DTD SVG 20010904//EN"
 "http://www.w3.org/TR/2001/REC-SVG-20010904/DTD/svg10.dtd">
<svg version="1.0" xmlns="http://www.w3.org/2000/svg"
 width="1920.000000pt" height="1896.000000pt" viewBox="0 0 1920.000000 1896.000000"
 preserveAspectRatio="xMidYMid meet">

<g transform="translate(0.000000,1896.000000) scale(0.100000,-0.100000)"
fill="#C0C0C0" stroke="none">
<path d="M1059 18763 c-1 -304 -4 -308 -227 -307 -81 0 -301 4 -490 9 l-342 8
0 -21 c0 -22 3 -22 178 -23 97 0 184 -2 192 -3 20 -4 1214 -16 2087 -21 596
-3 696 -6 722 -19 28 -15 29 -18 35 -108 3 -51 13 -291 22 -533 9 -242 19
-509 22 -594 7 -153 7 -154 -16 -169 -25 -16 -216 -37 -242 -26 -8 3 -499 10
-1090 14 -591 5 -1263 12 -1492 16 l-418 7 0 -22 c0 -21 4 -21 188 -23 103 -2
320 -3 482 -3 224 0 307 -3 344 -14 l49 -14 -6 -641 c-6 -576 -9 -642 -23
-653 -52 -38 -271 -47 -777 -29 -253 9 -257 9 -257 -11 0 -19 9 -20 167 -26
91 -4 533 -8 982 -8 449 -1 1085 -4 1414 -8 593 -6 599 -6 616 -27 15 -19 17
-57 19 -350 1 -181 4 -464 8 -629 4 -166 4 -310 0 -322 -12 -39 -55 -44 -301
-39 -126 3 -832 8 -1567 12 l-1338 5 0 -22 0 -21 517 3 c502 4 519 3 558 -16
78 -39 79 -45 87 -435 4 -189 12 -430 18 -534 12 -208 8 -278 -21 -326 -35
-57 -69 -63 -294 -56 -428 13 -793 19 -828 12 -27 -5 -37 -12 -37 -26 0 -18
14 -19 303 -22 166 -2 606 0 977 4 1103 11 1883 9 1919 -3 38 -14 75 -72 90
-147 16 -77 13 -364 -5 -601 -11 -135 -14 -257 -11 -353 6 -148 6 -148 -16
-149 -12 0 -750 0 -1639 1 l-1618 2 0 -27 0 -27 108 7 c142 9 1048 12 1057 3
6 -6 16 -314 33 -1033 5 -176 7 -322 5 -324 -10 -14 -279 -22 -711 -22 -473
-1 -492 -1 -492 -19 0 -18 49 -19 1673 -25 2527 -10 2843 -10 3034 3 116 8
545 12 1319 12 l1147 0 -7 -113 c-3 -61 -8 -326 -10 -587 -3 -349 -2 -425 4
-285 21 458 61 950 80 969 5 5 860 11 2024 14 l2014 5 6 -44 c21 -158 45 -561
48 -804 2 -187 5 -147 26 405 l17 445 2130 0 c1172 1 2933 3 3915 5 1512 3
1698 5 1215 12 -804 11 -1059 20 -1080 38 -15 12 -16 27 -11 110 19 292 24
498 16 650 -23 390 -23 442 -3 480 26 51 110 90 210 99 62 6 -1161 16 -1937
17 -241 1 -262 17 -242 182 7 59 13 254 13 497 1 220 4 450 8 510 l6 110 515
7 c283 3 1089 14 1790 23 701 9 1276 18 1278 19 1 2 -321 6 -715 9 -395 4
-743 10 -774 13 l-56 7 4 91 c3 50 20 317 39 593 19 277 34 507 34 513 0 7
249 10 735 10 599 0 735 2 735 13 0 18 -971 35 -2425 44 -673 3 -1107 9 -1119
15 -17 9 -18 19 -12 117 3 58 15 331 26 606 11 275 22 519 26 542 3 29 12 46
26 54 14 8 135 9 402 5 209 -3 987 -8 1729 -12 1211 -7 1347 -6 1347 8 0 26
-112 30 -758 27 -545 -3 -611 -1 -644 14 -59 25 -65 49 -39 167 11 55 21 129
21 163 0 59 95 976 102 982 4 3 1054 25 1206 25 88 0 112 3 112 14 0 17 -792
27 -2205 27 -540 1 -978 5 -1014 10 -35 6 -76 16 -92 25 l-29 15 0 217 c1 363
30 784 76 1083 l5 36 1627 7 c895 4 1629 9 1631 12 2 2 1 7 -3 11 -3 4 -328 7
-721 7 l-714 1 -5 35 c-3 19 -15 168 -27 330 -20 261 -28 325 -43 309 -2 -2
-11 -128 -20 -279 -9 -151 -19 -299 -22 -327 l-5 -53 -532 0 c-682 0 -2788 18
-3105 26 l-243 6 -17 26 c-24 36 -27 131 -9 294 9 79 18 180 20 226 3 72 2 82
-13 82 -20 0 -25 -59 -36 -398 -6 -163 -10 -207 -22 -219 -17 -17 -308 -16
-2042 10 -448 6 -1086 12 -1417 12 -717 0 -658 -11 -658 126 1 46 5 140 9 209
9 125 2 260 -14 260 -9 0 -20 -150 -29 -389 -6 -160 -7 -164 -31 -182 -24 -18
-58 -19 -1015 -9 -544 5 -1226 14 -1515 21 -289 6 -759 9 -1045 7 -481 -3
-522 -2 -552 15 -18 9 -38 27 -44 40 -8 13 -16 96 -20 202 -4 99 -11 204 -15
233 -6 48 -18 71 -30 59 -3 -3 2 -90 12 -194 19 -208 14 -287 -17 -328 l-21
-25 -166 5 c-92 2 -450 7 -797 10 -1387 11 -2732 25 -2945 30 -197 4 -227 7
-237 22 -10 13 -11 71 -6 250 6 213 5 233 -10 233 -15 0 -17 -20 -18 -197z
m3146 -378 c2666 -19 3272 -28 3291 -48 7 -6 25 -1073 22 -1237 l-3 -155 -275
-8 c-159 -5 -683 -4 -1245 2 -533 6 -1356 14 -1828 17 -480 4 -860 10 -863 15
-3 5 -18 323 -34 707 -25 621 -26 698 -13 709 10 8 38 10 77 8 33 -3 426 -7
871 -10z m5694 -55 c1454 -15 1836 -21 1842 -31 19 -31 21 -166 5 -323 -19
-190 -32 -407 -41 -701 -7 -238 -19 -300 -64 -338 -64 -54 -124 -56 -886 -28
-137 5 -743 10 -1345 11 -602 1 -1259 5 -1459 8 l-364 7 -21 28 c-18 25 -21
42 -21 130 0 56 2 140 4 187 1 47 0 303 -5 568 -6 412 -5 485 7 493 20 12 260
11 2348 -11z m3021 -28 c454 -6 1064 -13 1355 -16 1603 -18 1576 -17 1598 -39
17 -17 18 -27 13 -76 -4 -31 -9 -114 -12 -186 -3 -71 -12 -281 -21 -465 -9
-184 -15 -394 -14 -467 3 -131 3 -132 -24 -158 l-26 -27 -747 7 c-411 4 -1291
11 -1957 16 -665 6 -1246 13 -1290 17 l-80 7 3 90 c2 50 14 266 28 480 13 215
29 478 35 585 9 159 15 198 28 213 21 22 119 36 216 32 39 -2 441 -8 895 -13z
m-11205 -1363 c72 -4 913 -13 1869 -18 1396 -8 1742 -13 1752 -23 12 -13 13
-53 41 -1094 5 -176 3 -233 -6 -238 -12 -8 -3005 10 -3846 22 l-440 7 1 616 1
616 23 40 c21 38 48 56 110 77 24 7 354 5 495 -5z m6195 -50 c1275 -9 1539
-13 1557 -24 40 -26 47 -74 38 -275 -11 -273 -11 -438 0 -595 l10 -140 7 195
c4 107 9 332 13 500 5 267 8 307 22 317 13 10 126 12 512 8 273 -3 1196 -10
2051 -16 855 -6 1556 -12 1558 -14 19 -18 46 -565 38 -795 -8 -241 -27 -525
-36 -540 -7 -11 -2212 -1 -3573 16 -485 6 -518 8 -527 25 -14 26 -50 178 -51
219 -1 19 -7 -10 -14 -65 -7 -55 -17 -111 -23 -125 -22 -56 54 -54 -1200 -39
-1291 15 -1673 16 -2292 9 -466 -5 -496 -3 -549 50 -47 48 -50 76 -51 500 -1
292 -5 428 -17 520 -20 163 -14 237 23 268 l27 24 471 -6 c259 -4 1162 -11
2006 -17z m8459 -60 c914 -6 1411 -13 1423 -20 43 -23 47 -72 18 -254 -30
-198 -51 -445 -59 -711 -9 -285 -14 -303 -96 -344 l-50 -25 -540 2 c-1934 8
-3277 22 -3292 35 -44 36 -56 169 -34 388 4 47 4 225 -1 395 -9 307 -6 415 14
508 l10 49 601 -7 c331 -3 1234 -10 2006 -16z m-12449 -1299 c124 -6 461 -9
750 -8 792 3 2732 -13 2758 -23 14 -5 31 -28 44 -56 19 -44 20 -59 15 -218 -6
-165 -4 -219 28 -636 20 -257 19 -304 -5 -357 -31 -69 -79 -85 -265 -90 -82
-2 -251 2 -375 8 -151 9 -783 15 -1913 19 -1450 5 -1689 8 -1697 20 -20 34
-33 189 -26 331 3 80 1 314 -6 520 -6 207 -8 388 -5 402 12 44 54 86 100 97
43 11 188 8 597 -9z m6050 -41 c973 -7 1552 -15 1563 -21 49 -26 59 -143 32
-375 -10 -92 -14 -222 -13 -463 1 -338 -2 -379 -37 -464 l-16 -38 -267 6
c-147 3 -1027 9 -1957 12 -929 3 -1692 8 -1694 10 -2 1 -10 29 -18 61 -10 40
-17 168 -23 413 -5 195 -14 405 -20 465 -11 123 -13 326 -4 374 l7 31 451 0
c248 0 1146 -5 1996 -11z m4360 -29 c674 -6 1245 -12 1270 -14 44 -3 45 -4 52
-42 12 -66 9 -265 -7 -487 -29 -411 -32 -473 -28 -585 5 -115 -8 -184 -40
-210 -12 -10 -3900 4 -3965 14 -43 7 -56 38 -43 109 5 28 12 243 16 476 5 387
18 669 32 727 l5 22 742 0 c407 0 1292 -5 1966 -10z m-9915 -1329 l960 -6 13
-50 c10 -36 15 -167 19 -480 9 -677 9 -717 -5 -756 l-13 -36 -183 -7 c-100 -4
-949 -8 -1887 -8 -937 -1 -1769 -1 -1849 -2 -171 -1 -209 11 -244 79 -18 35
-21 61 -23 205 -2 91 -8 366 -14 612 -5 247 -7 452 -4 458 6 9 807 7 3230 -9z
m3753 -18 l1304 -6 8 -22 c34 -90 46 -841 18 -1140 l-13 -140 -2007 -3 c-1905
-2 -2007 -1 -2012 15 -21 73 -30 325 -31 788 l0 510 150 6 c83 4 404 5 715 3
311 -2 1151 -7 1868 -11z m3662 -19 c1185 -4 1709 -10 1718 -17 58 -47 73
-177 48 -422 -12 -125 -15 -223 -10 -443 4 -238 3 -291 -10 -336 -9 -29 -22
-58 -29 -64 -19 -16 -3867 -18 -3925 -3 -23 7 -54 22 -69 35 -27 23 -28 28
-28 118 0 51 6 164 14 250 13 155 11 465 -5 725 l-7 112 32 32 32 32 267 -7
c147 -3 1034 -9 1972 -12z m4377 -22 c804 -4 1465 -10 1469 -15 4 -4 -16 -277
-46 -607 -45 -504 -56 -601 -69 -605 -9 -2 -92 -11 -185 -20 -289 -27 -710
-35 -1241 -24 -289 6 -899 7 -1490 3 -956 -7 -1001 -6 -1015 11 -18 21 -18 24
-8 732 3 276 9 507 13 512 14 23 87 26 588 23 287 -2 1180 -6 1984 -10z
m-7905 -1312 c130 -4 900 -6 1712 -3 812 4 1476 4 1476 1 0 -3 4 -28 10 -56
12 -68 -3 -1199 -17 -1213 -7 -7 -579 -10 -1704 -8 -932 2 -1816 3 -1964 4
-224 0 -275 3 -293 15 l-23 15 -4 390 c-3 215 -8 408 -13 430 -15 74 -35 -286
-31 -572 l4 -261 -115 -9 c-63 -4 -554 -6 -1090 -3 -1399 7 -1987 6 -2385 -4
-409 -10 -447 -6 -506 53 -55 55 -63 110 -54 366 4 116 9 349 10 520 3 289 4
310 21 322 27 17 3935 21 4009 3 69 -16 112 -45 127 -85 l12 -35 13 33 c41 97
122 119 403 111 91 -3 271 -9 402 -14z m7152 1 c38 -6 80 -17 94 -24 l24 -12
-1 -325 c0 -179 -4 -456 -7 -616 l-7 -291 -81 -9 c-99 -11 -3827 -13 -3876 -2
-80 17 -93 59 -80 238 5 63 11 321 13 572 2 252 7 461 11 465 4 5 682 8 1507
9 824 0 1502 4 1506 8 12 12 816 0 897 -13z m-10157 -1315 c12 -12 9 -310 -4
-528 -7 -108 -13 -307 -13 -442 0 -250 -8 -330 -38 -366 -17 -20 -33 -20
-1022 -27 -1778 -14 -2544 -8 -2907 24 l-73 6 0 106 c0 58 -7 246 -15 416 -16
333 -19 609 -8 744 l6 84 2034 -5 c1118 -2 2036 -8 2040 -12z m4107 -21 c63
-26 87 -59 96 -132 l7 -58 2 83 c2 138 -84 123 704 121 375 0 1074 2 1552 6
592 5 959 4 1150 -4 324 -13 587 -30 596 -40 4 -3 3 -49 -2 -101 -5 -52 -14
-295 -19 -540 -5 -249 -14 -464 -20 -489 -23 -94 -66 -140 -158 -168 -68 -21
-114 -22 -1682 -10 -795 6 -1124 5 -1335 -5 -154 -7 -370 -13 -480 -13 -194 0
-202 1 -250 25 -99 50 -107 106 -82 541 20 327 30 586 23 579 -2 -3 -17 -107
-32 -230 -22 -191 -27 -275 -30 -554 -2 -181 -7 -333 -11 -337 -5 -4 -929 -11
-2055 -15 l-2047 -7 -12 29 c-28 72 -33 165 -16 344 10 96 20 315 23 485 5
302 14 416 35 483 l11 32 1991 -2 c1966 -3 1993 -3 2041 -23z m8092 -1 l32 -5
1 -552 c0 -372 -3 -571 -11 -610 -31 -161 -125 -193 -508 -176 -570 25 -914
30 -1252 20 -461 -15 -2244 -15 -2253 0 -27 43 -22 234 18 639 7 70 11 229 9
363 -3 262 1 284 56 306 16 7 51 16 78 20 53 7 3779 3 3830 -5z"/>
<path d="M7483 12535 c0 -38 2 -53 4 -32 2 20 2 52 0 70 -2 17 -4 1 -4 -38z"/>
<path d="M17916 11459 c2 -3 86 -9 186 -13 101 -3 280 -11 398 -16 118 -5 324
-9 458 -10 235 0 242 1 242 20 0 19 -9 20 -644 22 -354 2 -642 0 -640 -3z"/>
<path d="M15522 9850 c-10 -159 -53 -931 -64 -1149 l-3 -55 -490 2 c-269 1
-575 4 -680 7 -104 3 -496 7 -870 10 -374 3 -860 8 -1080 11 -1651 22 -3323
33 -3565 24 -146 -6 -276 -12 -290 -13 -14 -1 135 -6 330 -11 195 -5 391 -11
435 -15 l80 -6 6 -265 c4 -146 7 -459 8 -696 l1 -432 -147 -7 c-82 -4 -510 -5
-953 -1 -443 3 -1319 9 -1948 12 -973 6 -1145 9 -1158 21 -8 8 -14 33 -14 56
0 23 -12 334 -26 690 -14 356 -23 655 -20 664 6 14 73 15 714 9 389 -3 1012
-11 1385 -17 373 -6 680 -9 683 -7 2 3 -128 10 -289 16 -160 7 -346 17 -412
22 -66 5 -624 14 -1240 20 -1392 13 -2677 29 -2680 32 -2 2 -10 188 -20 413
-9 226 -18 415 -19 420 -1 6 -6 -50 -10 -124 -12 -227 -72 -659 -96 -684 -13
-15 -1393 -48 -2247 -54 -654 -5 -843 -9 -843 -18 0 -13 41 -15 739 -35 184
-6 337 -13 340 -16 3 -3 22 -283 42 -622 l37 -617 1 626 1 626 152 7 c775 32
3554 44 3670 15 21 -5 42 -17 47 -27 4 -9 14 -161 20 -337 6 -176 18 -479 27
-674 12 -294 13 -357 2 -368 -29 -28 -127 -36 -368 -27 -129 4 -343 8 -475 9
-132 0 -949 3 -1815 7 -937 4 -1433 3 -1225 -2 632 -15 1330 -40 1590 -56
l100 -6 0 -659 0 -659 -177 0 c-191 0 -598 -17 -688 -29 -30 -4 526 -10 1235
-14 710 -4 1388 -10 1508 -13 270 -8 264 -5 258 -121 -4 -94 -5 -31 4 -685 l8
-537 -29 -11 c-16 -6 -53 -11 -84 -12 -97 0 -1928 12 -2450 16 -574 6 -2239
-11 -2345 -23 -41 -5 313 -10 850 -12 1157 -5 1291 -5 1610 1 251 4 262 4 308
-17 39 -18 52 -31 69 -70 21 -46 23 -68 30 -453 5 -223 13 -441 18 -485 7 -63
4 719 -4 970 l-1 40 1525 -2 c839 -2 1783 -6 2097 -9 l573 -6 11 -37 c8 -23
15 -208 22 -516 12 -590 12 -668 -5 -725 l-14 -45 -2029 -5 c-1899 -6 -2033
-5 -2072 11 -50 21 -71 56 -81 137 l-8 57 -6 -58 c-8 -68 -32 -114 -77 -144
-62 -42 -120 -46 -461 -34 -271 10 -2545 14 -2455 5 17 -2 323 -13 680 -25
358 -11 653 -24 656 -27 3 -4 14 -263 23 -577 10 -313 19 -571 21 -573 1 -1 5
183 9 410 3 227 9 486 12 574 l6 161 257 7 c141 4 414 11 606 17 193 5 884 12
1536 16 1334 7 1218 13 1257 -71 48 -101 52 -279 16 -761 -14 -188 -15 -245
-5 -311 6 -45 9 -88 6 -95 -4 -12 -225 -14 -1358 -14 -1308 0 -2166 -11 -2082
-26 22 -4 326 -8 675 -8 488 -1 637 -4 646 -14 8 -8 17 -210 29 -680 9 -368
15 -670 14 -671 -7 -6 -989 -28 -2204 -49 -77 -2 14 -4 203 -5 l342 -2 0 -180
c0 -173 1 -180 20 -180 14 0 20 7 21 23 1 12 4 89 8 171 l6 149 1340 -1 c737
-1 1511 3 1720 9 209 5 391 10 404 10 12 1 28 -4 33 -9 6 -6 12 -68 14 -139 3
-70 7 -147 10 -171 10 -83 24 -36 27 93 3 138 16 187 57 213 41 25 151 31 365
20 141 -7 765 -10 1908 -8 l1697 2 16 -38 c14 -32 15 -60 10 -154 -3 -63 -9
-127 -12 -143 -5 -20 -2 -27 8 -27 12 0 16 23 21 110 7 143 34 207 99 242 41
22 52 23 243 22 110 -1 310 -6 445 -11 160 -7 593 -7 1245 -1 550 4 1232 7
1515 6 l514 -3 14 -45 c7 -25 16 -107 19 -182 6 -142 23 -182 23 -55 0 90 16
190 36 229 10 19 33 37 62 50 45 20 56 21 302 12 140 -5 1000 -7 1912 -5
l1656 4 12 -39 c7 -21 14 -105 17 -186 3 -82 9 -148 13 -148 5 0 7 64 7 143
-2 144 2 165 41 210 14 16 74 17 999 17 952 0 983 1 983 19 0 17 -4 17 -52 8
-53 -9 -267 -5 -648 13 -102 4 -856 6 -1676 3 l-1492 -6 -8 24 c-4 13 -11 69
-14 124 -4 55 -8 86 -8 69 -5 -94 -68 -178 -152 -203 -78 -23 -270 -31 -550
-23 -151 5 -549 10 -885 10 -335 1 -707 5 -825 8 -126 4 -379 1 -610 -7 -217
-8 -498 -14 -625 -14 -221 0 -232 1 -273 23 -87 46 -100 127 -78 452 9 124 18
322 21 440 l4 215 -24 -190 c-31 -243 -46 -537 -38 -744 6 -152 5 -165 -12
-177 -16 -12 -360 -14 -2062 -14 l-2042 0 -16 52 c-19 66 -19 201 0 383 8 78
17 287 19 465 4 268 8 337 23 395 l18 70 1925 1 c1060 0 1963 -3 2009 -8 91
-10 153 -35 172 -70 7 -13 18 -45 25 -73 l12 -50 -4 70 c-4 47 -1 78 8 95 l14
25 1224 5 c1573 5 2044 3 2315 -10 243 -12 435 -27 443 -34 2 -3 -1 -69 -7
-148 -7 -79 -14 -314 -16 -523 -4 -374 -4 -378 10 -240 32 317 38 438 32 627
-3 106 -3 205 0 220 8 42 48 75 106 88 39 9 478 12 1697 11 905 -1 1717 -4
1806 -7 174 -7 234 -2 234 21 0 12 -122 15 -857 17 -804 3 -860 4 -891 21 -46
25 -55 56 -42 141 7 42 14 285 17 596 3 317 9 529 14 535 7 7 312 9 885 8
l874 -2 0 31 c0 30 -1 30 -37 25 -134 -21 -557 -29 -1118 -21 -330 5 -1047 7
-1592 5 l-993 -4 -15 37 c-13 31 -15 62 -9 169 3 73 9 339 13 592 l6 459 25
13 c20 11 272 13 1350 8 729 -3 1560 -8 1848 -11 l522 -5 0 20 0 21 -712 2
c-392 2 -777 3 -855 3 -98 0 -146 4 -154 12 -8 8 -12 35 -10 70 7 199 42 1027
47 1120 4 77 11 116 20 124 15 13 771 14 1342 3 283 -6 322 -5 322 8 0 23
-131 26 -1935 38 -896 7 -1640 16 -1652 20 -44 18 -58 65 -56 185 1 61 4 331
6 600 2 296 7 502 13 520 l10 30 595 0 c327 0 1140 -4 1807 -9 1181 -8 1214
-8 1210 10 -3 18 -28 19 -683 20 -685 1 -765 5 -810 38 -17 13 -17 36 4 587
12 316 22 609 24 651 3 92 19 116 88 128 24 5 280 4 569 0 794 -14 810 -14
810 8 0 21 194 18 -2450 42 -857 9 -1151 14 -1170 23 -16 8 -31 30 -43 62 -16
44 -17 74 -12 255 3 113 10 264 15 335 11 150 11 678 1 715 -4 15 -12 -56 -19
-170z m-4337 -1200 c534 -5 1286 -13 1673 -16 500 -5 704 -10 709 -18 15 -23
15 -221 0 -383 -20 -208 -26 -311 -37 -628 -9 -261 -15 -301 -57 -346 -53 -58
-140 -64 -591 -45 -222 10 -576 16 -910 16 -301 0 -996 3 -1546 7 l-999 6 -26
23 -26 22 -5 464 c-2 254 -5 562 -5 683 l0 219 25 7 c14 3 205 5 425 3 220 -3
837 -9 1370 -14z m4070 -41 c556 -6 1328 -14 1717 -17 620 -6 709 -9 723 -23
14 -13 13 -62 -6 -500 -12 -266 -22 -560 -23 -654 -2 -185 -8 -210 -53 -222
-15 -3 -444 -3 -953 1 -509 4 -1323 9 -1810 11 -846 3 -1140 9 -1259 22 l-54
6 7 131 c8 164 64 1056 72 1153 3 44 11 77 20 84 30 24 86 28 344 24 146 -3
720 -10 1275 -16z m-11690 -1354 c237 -11 742 -16 1945 -20 894 -3 1632 -8
1642 -11 21 -6 24 -66 38 -654 6 -245 13 -498 16 -562 5 -106 4 -117 -13 -126
-11 -5 -672 -4 -1663 4 -905 7 -1859 13 -2121 13 -364 1 -479 4 -490 14 -13
10 -15 87 -10 627 6 579 7 617 25 646 52 86 113 93 631 69z m6872 -54 c830 -6
843 -6 863 -26 37 -37 45 -116 32 -302 -13 -183 -14 -393 -4 -543 6 -84 9 -55
26 252 10 191 17 403 15 470 l-4 123 25 11 c18 8 245 9 855 4 457 -5 1269 -11
1805 -14 536 -4 1084 -9 1216 -12 l242 -6 6 -67 c35 -363 35 -836 0 -1205 l-6
-69 -1127 6 c-2423 15 -2951 20 -2966 31 -18 13 -52 145 -64 246 l-8 75 -2
-101 c-1 -117 -21 -198 -54 -217 -23 -13 -419 -11 -2322 8 -498 5 -863 4
-1085 -3 -494 -17 -583 -3 -632 96 -23 47 -23 50 -25 472 -1 234 -7 455 -13
492 -5 37 -10 107 -10 156 0 77 3 93 22 117 l22 28 1175 -8 c647 -4 1555 -11
2018 -14z m-3512 -1359 c2061 -15 2310 -19 2335 -32 47 -25 53 -64 56 -375 1
-159 9 -375 18 -478 32 -368 24 -431 -57 -471 -73 -35 -173 -39 -595 -21 -317
13 -716 17 -1989 20 -875 1 -1596 6 -1601 9 -22 14 -32 164 -38 601 -11 718
-12 669 12 702 42 58 69 64 274 59 102 -2 815 -9 1585 -14z m4985 -37 c542 -3
1090 -8 1218 -11 l234 -6 18 -31 c31 -50 34 -126 15 -296 -14 -122 -18 -229
-17 -491 1 -335 -4 -403 -36 -484 l-15 -38 -1381 6 c-760 3 -1642 9 -1962 12
l-581 6 -12 47 c-7 27 -16 178 -21 366 -5 176 -16 415 -26 530 -15 195 -14
347 3 391 6 16 50 17 792 11 432 -4 1229 -9 1771 -12z m3470 -25 c795 -5 1590
-12 1767 -16 317 -6 323 -7 329 -28 12 -38 6 -348 -11 -556 -9 -113 -18 -311
-19 -441 -2 -215 -4 -239 -22 -270 l-20 -34 -1600 3 c-879 1 -1776 5 -1992 8
-455 7 -428 1 -418 98 3 34 11 279 16 546 5 267 14 526 20 575 5 50 10 98 10
108 0 21 -84 20 1940 7z m-4734 -1356 l662 -6 6 -52 c3 -28 11 -118 17 -201
19 -241 0 -1017 -25 -1042 -2 -3 -906 -7 -2008 -10 l-2005 -6 -13 99 c-9 67
-14 282 -17 661 l-5 562 49 4 c61 6 2461 -1 3339 -9z m2823 -14 c1412 -8 1898
-13 1908 -22 54 -45 68 -156 48 -372 -12 -128 -16 -250 -13 -486 3 -305 2
-317 -18 -361 l-22 -47 -1928 -4 c-1421 -3 -1944 -1 -1987 7 -111 22 -123 59
-100 295 17 174 20 482 7 705 -12 211 -10 241 12 266 28 32 52 38 129 33 39
-2 922 -9 1964 -14z m3761 -1331 c59 -6 120 -17 139 -27 l34 -17 -2 -165 c-6
-460 -18 -1060 -22 -1064 -2 -2 -182 -9 -399 -15 -497 -14 -3528 -4 -3578 11
-62 19 -63 34 -52 410 5 183 10 448 10 589 0 206 3 259 14 268 10 9 357 12
1342 12 731 0 1480 4 1664 8 376 9 693 5 850 -10z m-6848 -7 c174 -4 464 -4
645 -1 180 4 768 7 1305 8 l977 1 11 -42 c15 -53 15 -132 4 -735 -5 -270 -13
-495 -17 -500 -5 -4 -891 -7 -1970 -5 -1496 3 -1968 6 -1987 15 l-25 12 -6
390 c-3 215 -7 413 -9 440 l-2 50 -8 -40 c-19 -93 -32 -437 -26 -636 7 -193 6
-207 -11 -214 -37 -15 -932 -17 -1883 -5 -815 10 -1047 10 -1345 -2 -452 -16
-716 -17 -772 0 -98 29 -133 93 -136 248 -3 248 17 995 27 1003 6 5 870 10
2001 12 2079 3 2038 4 2101 -37 12 -9 30 -32 40 -52 l17 -37 8 29 c14 51 59
86 136 106 23 6 151 7 323 4 157 -3 428 -9 602 -12z m-3260 -1316 c15 -24 20
-169 9 -305 -20 -258 -24 -361 -25 -651 -2 -293 -7 -335 -44 -379 l-17 -20
-1740 -3 c-1317 -2 -1793 0 -1960 10 -121 7 -235 15 -252 18 l-33 5 0 167 c0
92 -5 255 -11 362 -13 229 -16 716 -5 778 l8 43 2031 -7 c1404 -5 2034 -10
2039 -18z"/>
<path d="M9300 2835 c0 -38 2 -66 4 -64 8 7 10 118 3 126 -4 3 -7 -24 -7 -62z"/>
<path d="M0 5883 c0 -11 66 -14 879 -38 266 -8 485 -16 487 -17 9 -10 14 -191
20 -666 4 -298 8 -541 11 -539 2 2 12 269 21 594 10 324 21 594 25 600 3 5 86
18 184 27 98 10 187 22 198 26 11 5 -179 9 -430 9 -247 1 -663 4 -922 8 -317
4 -473 3 -473 -4z"/>
<path d="M70 1780 c-17 -11 485 -11 915 -1 229 6 181 8 -315 9 -364 1 -591 -2
-600 -8z"/>
</g>
</svg>
